<svg width="472" height="442" fill="none" xmlns="http://www.w3.org/2000/svg"><path fill-rule="evenodd" clip-rule="evenodd" d="M212.469 34.518c26.341 0 40.308 17.055 40.308 50.995l-59.268.049c.796 12.893 8.129 21.24 19.297 21.24 7.334 0 13.798-3.705 15.366-9.622h23.375c-5.235 17.584-19.37 27.494-37.703 27.494-28.609 0-42.938-15.659-42.938-46.642 0-26.46 15.221-43.514 41.563-43.514zm-.7 17.945c-9.094 0-16.596 6.951-17.464 18.786h35.073c-.337-12.7-8.515-18.786-17.609-18.786z" fill="url(#paint0_linear_441_2045)"/><path d="M206.945 0v21.649h-22.699V0h22.699z" fill="url(#paint1_linear_441_2045)"/><path d="M241.85 0v21.649h-22.699V0h22.699z" fill="url(#paint2_linear_441_2045)"/><path d="M143.383 91.43c-.869 9.238-7.84 14.289-16.741 14.289s-16.765-9.068-16.765-27.686c0-18.619 7.815-24.68 17.416-24.68a15.61 15.61 0 0110.95 3.803 15.522 15.522 0 015.284 10.293h22.844c-1.375-20.206-16.572-32.907-38.909-32.907-24.122 0-40.14 13.398-40.14 44.044 0 30.645 16.042 46.112 39.44 46.112 20.77 0 37.004-13.398 39.44-33.243l-22.819-.024z" fill="url(#paint3_linear_441_2045)"/><path fill-rule="evenodd" clip-rule="evenodd" d="M48.751 122.413c24.436 0 34.036-10.079 34.036-24.536 0-13.398-8.201-19.844-16.596-21.649a18.192 18.192 0 0010.377-6.793 18.102 18.102 0 003.59-11.849c0-11.305-7.237-20.71-27.572-20.71H1.447v85.633l47.304-.096zm-25.666-15.996V83.252h23.809c8.732 0 13.436 4.017 13.436 11.498 0 7.481-4.704 11.667-14.835 11.667h-22.41zm0-35V52.175h22.337c8.395 0 12.399 3.488 12.399 9.742 0 6.254-4.366 9.622-11.868 9.622l-22.868-.12z" fill="url(#paint4_linear_441_2045)"/><path d="M78.76 261.929v-85.634H56.541v36.081a46.318 46.318 0 01-18.67 3.488c-9.939 0-15.704-2.79-15.704-13.59v-25.979H0v26.195c0 24.199 11.868 29.924 30.37 29.924a76.45 76.45 0 0026.172-4.33v33.676l22.217.169z" fill="url(#paint5_linear_441_2045)"/><path d="M136.894 194.408v67.521h-22.169v-67.521H85.224v-18.113h80.978v18.113h-29.308z" fill="url(#paint6_linear_441_2045)"/><path fill-rule="evenodd" clip-rule="evenodd" d="M208.271 264.19c26.704 0 43.638-17.921 43.638-45.078 0-27.158-16.886-45.078-43.638-45.078-27.234 0-44.167 17.944-44.167 45.078 0 26.676 16.403 45.078 44.167 45.078zm0-18.955c-13.797 0-20.769-8.708-20.769-26.123 0-17.416 6.972-25.931 20.769-25.931 13.798 0 20.77 8.539 20.77 25.931 0 17.391-6.996 26.123-20.77 26.123z" fill="url(#paint7_linear_441_2045)"/><path d="M23.616 366.469v34.975H1.447V315.81h22.169v32.739h34.543V315.81h22.168v85.634H58.159v-34.975H23.616z" fill="url(#paint8_linear_441_2045)"/><path d="M144.565 404.066c0 11.306-7.502 18.45-15.704 18.45-11.868 0-17.802-6.278-17.802-16.357H89.928c0 22.106 12.736 35.841 37.872 35.841 21.999 0 39.464-14.096 39.464-38.295V315.81h-22.699v52.223c0 9.213-7.237 16.02-17.465 16.02-9.649 0-14.473-5.412-14.473-16.02V315.81h-22.7v55.518c0 18.811 13.437 30.982 31.36 30.982 10.638 0 20.069-4.522 23.205-12.171l.073 13.927z" fill="url(#paint9_linear_441_2045)"/><path d="M222.238 315.81h20.938v32.739l21.107-32.739h25.956l-31.07 41.951 32.179 43.683h-26.703l-21.469-32.016v32.016h-20.938v-32.016l-21.469 32.016h-26.703l32.276-43.683-31.07-41.951h25.835l21.131 32.739V315.81z" fill="url(#paint10_linear_441_2045)"/><path d="M319.789 401.444v-34.975h34.567v34.975h22.168V315.81h-22.168v32.739h-34.567V315.81H297.62v85.634h22.169z" fill="url(#paint11_linear_441_2045)"/><path fill-rule="evenodd" clip-rule="evenodd" d="M472 358.627c0 27.158-16.934 45.078-43.637 45.078-27.765 0-44.168-18.401-44.168-45.078 0-27.133 17.416-45.078 44.168-45.078 26.751 0 43.637 17.921 43.637 45.078zm-64.406 0c0 17.416 6.971 26.123 20.769 26.123 13.774 0 20.769-8.731 20.769-26.123 0-17.391-6.971-25.93-20.769-25.93-13.798 0-20.769 8.515-20.769 25.93z" fill="url(#paint12_linear_441_2045)"/><defs><linearGradient id="paint0_linear_441_2045" x1="113.187" y1="416.798" x2="368.401" y2="387.695" gradientUnits="userSpaceOnUse"><stop stop-color="#FDB913"/><stop offset="1" stop-color="#FF7A00"/></linearGradient><linearGradient id="paint1_linear_441_2045" x1="113.187" y1="416.798" x2="368.401" y2="387.695" gradientUnits="userSpaceOnUse"><stop stop-color="#FDB913"/><stop offset="1" stop-color="#FF7A00"/></linearGradient><linearGradient id="paint2_linear_441_2045" x1="113.187" y1="416.798" x2="368.401" y2="387.695" gradientUnits="userSpaceOnUse"><stop stop-color="#FDB913"/><stop offset="1" stop-color="#FF7A00"/></linearGradient><linearGradient id="paint3_linear_441_2045" x1="113.187" y1="416.798" x2="368.401" y2="387.695" gradientUnits="userSpaceOnUse"><stop stop-color="#FDB913"/><stop offset="1" stop-color="#FF7A00"/></linearGradient><linearGradient id="paint4_linear_441_2045" x1="113.187" y1="416.798" x2="368.401" y2="387.695" gradientUnits="userSpaceOnUse"><stop stop-color="#FDB913"/><stop offset="1" stop-color="#FF7A00"/></linearGradient><linearGradient id="paint5_linear_441_2045" x1="113.187" y1="416.798" x2="368.401" y2="387.695" gradientUnits="userSpaceOnUse"><stop stop-color="#FDB913"/><stop offset="1" stop-color="#FF7A00"/></linearGradient><linearGradient id="paint6_linear_441_2045" x1="113.187" y1="416.798" x2="368.401" y2="387.695" gradientUnits="userSpaceOnUse"><stop stop-color="#FDB913"/><stop offset="1" stop-color="#FF7A00"/></linearGradient><linearGradient id="paint7_linear_441_2045" x1="113.187" y1="416.798" x2="368.401" y2="387.695" gradientUnits="userSpaceOnUse"><stop stop-color="#FDB913"/><stop offset="1" stop-color="#FF7A00"/></linearGradient><linearGradient id="paint8_linear_441_2045" x1="113.187" y1="416.798" x2="368.401" y2="387.695" gradientUnits="userSpaceOnUse"><stop stop-color="#FDB913"/><stop offset="1" stop-color="#FF7A00"/></linearGradient><linearGradient id="paint9_linear_441_2045" x1="113.187" y1="416.798" x2="368.401" y2="387.695" gradientUnits="userSpaceOnUse"><stop stop-color="#FDB913"/><stop offset="1" stop-color="#FF7A00"/></linearGradient><linearGradient id="paint10_linear_441_2045" x1="113.187" y1="416.798" x2="368.401" y2="387.695" gradientUnits="userSpaceOnUse"><stop stop-color="#FDB913"/><stop offset="1" stop-color="#FF7A00"/></linearGradient><linearGradient id="paint11_linear_441_2045" x1="113.187" y1="416.798" x2="368.401" y2="387.695" gradientUnits="userSpaceOnUse"><stop stop-color="#FDB913"/><stop offset="1" stop-color="#FF7A00"/></linearGradient><linearGradient id="paint12_linear_441_2045" x1="113.187" y1="416.798" x2="368.401" y2="387.695" gradientUnits="userSpaceOnUse"><stop stop-color="#FDB913"/><stop offset="1" stop-color="#FF7A00"/></linearGradient></defs></svg>