<svg width="257" height="240" fill="none" xmlns="http://www.w3.org/2000/svg"><path fill-rule="evenodd" clip-rule="evenodd" d="M115.759 18.743c14.263 0 21.825 9.26 21.825 27.69l-32.091.026c.431 7 4.401 11.533 10.449 11.533 3.97 0 7.471-2.012 8.32-5.225h12.656c-2.834 9.548-10.488 14.93-20.415 14.93-15.49 0-23.249-8.504-23.249-25.326 0-14.368 8.242-23.628 22.505-23.628zm-.379 9.744c-4.924 0-8.986 3.774-9.456 10.2h18.991c-.183-6.896-4.611-10.2-9.535-10.2z" fill="url(#paint0_linear_441_1986)"/><path d="M112.768 0v11.755h-12.291V0h12.291z" fill="url(#paint1_linear_441_1986)"/><path d="M131.667 0v11.755h-12.29V0h12.29z" fill="url(#paint2_linear_441_1986)"/><path d="M78.351 49.646c-.47 5.015-4.245 7.758-9.064 7.758-4.82 0-9.078-4.924-9.078-15.033 0-10.11 4.232-13.401 9.43-13.401a8.437 8.437 0 018.79 7.654H90.8c-.745-10.972-8.973-17.868-21.068-17.868-13.061 0-21.734 7.275-21.734 23.915s8.686 25.038 21.355 25.038c11.246 0 20.036-7.275 21.355-18.05l-12.356-.013z" fill="url(#paint3_linear_441_1986)"/><path fill-rule="evenodd" clip-rule="evenodd" d="M27.112 66.469c13.231 0 18.43-5.473 18.43-13.323 0-7.275-4.441-10.775-8.986-11.755a9.849 9.849 0 007.562-10.122c0-6.14-3.919-11.246-14.93-11.246H1.5V66.52l25.613-.052zm-13.897-8.686V45.205h12.892c4.728 0 7.275 2.181 7.275 6.243s-2.547 6.335-8.033 6.335H13.215zm0-19.004v-10.45H25.31c4.545 0 6.713 1.895 6.713 5.29 0 3.397-2.364 5.225-6.426 5.225l-12.382-.065z" fill="url(#paint4_linear_441_1986)"/><path d="M43.36 142.224V95.726H31.331v19.592a25.023 25.023 0 01-10.11 1.893c-5.38 0-8.502-1.515-8.502-7.379V95.726H.715v14.223c0 13.14 6.427 16.249 16.444 16.249 4.825.05 9.622-.746 14.172-2.351v18.285l12.03.092z" fill="url(#paint5_linear_441_1986)"/><path d="M74.838 105.561v36.663H62.835v-36.663H46.86v-9.835h43.846v9.835h-15.87z" fill="url(#paint6_linear_441_1986)"/><path fill-rule="evenodd" clip-rule="evenodd" d="M113.486 143.451c14.459 0 23.628-9.73 23.628-24.476 0-14.746-9.143-24.477-23.628-24.477-14.746 0-23.915 9.744-23.915 24.477 0 14.485 8.882 24.476 23.915 24.476zm0-10.292c-7.471 0-11.246-4.728-11.246-14.184 0-9.457 3.775-14.08 11.246-14.08s11.246 4.636 11.246 14.08c0 9.443-3.788 14.184-11.246 14.184z" fill="url(#paint7_linear_441_1986)"/><path d="M13.502 198.988v18.991H1.5v-46.498h12.003v17.776h18.704v-17.776H44.21v46.498H32.206v-18.991H13.502z" fill="url(#paint8_linear_441_1986)"/><path d="M78.991 219.402c0 6.139-4.062 10.018-8.502 10.018-6.427 0-9.64-3.409-9.64-8.881H49.408c0 12.003 6.896 19.461 20.506 19.461 11.912 0 21.368-7.654 21.368-20.794v-47.725h-12.29v28.356c0 5.002-3.919 8.699-9.457 8.699-5.224 0-7.837-2.939-7.837-8.699v-28.356h-12.29v30.145c0 10.214 7.275 16.823 16.98 16.823 5.76 0 10.866-2.456 12.564-6.609l.04 7.562z" fill="url(#paint9_linear_441_1986)"/><path d="M121.049 171.481h11.337v17.776l11.428-17.776h14.054l-16.823 22.779 17.424 23.719H144.01l-11.624-17.385v17.385h-11.337v-17.385l-11.625 17.385H94.965l17.476-23.719-16.823-22.779h13.989l11.442 17.776v-17.776z" fill="url(#paint10_linear_441_1986)"/><path d="M173.868 217.979v-18.991h18.717v18.991h12.003v-46.498h-12.003v17.776h-18.717v-17.776h-12.003v46.498h12.003z" fill="url(#paint11_linear_441_1986)"/><path fill-rule="evenodd" clip-rule="evenodd" d="M256.285 194.73c0 14.746-9.169 24.476-23.628 24.476-15.034 0-23.915-9.991-23.915-24.476 0-14.733 9.43-24.477 23.915-24.477s23.628 9.731 23.628 24.477zm-34.874 0c0 9.456 3.775 14.184 11.246 14.184 7.458 0 11.245-4.741 11.245-14.184s-3.774-14.08-11.245-14.08c-7.471 0-11.246 4.623-11.246 14.08z" fill="url(#paint12_linear_441_1986)"/><defs><linearGradient id="paint0_linear_441_1986" x1="62.002" y1="226.316" x2="200.2" y2="210.601" gradientUnits="userSpaceOnUse"><stop stop-color="#FDB913"/><stop offset="1" stop-color="#FF7A00"/></linearGradient><linearGradient id="paint1_linear_441_1986" x1="62.002" y1="226.316" x2="200.2" y2="210.601" gradientUnits="userSpaceOnUse"><stop stop-color="#FDB913"/><stop offset="1" stop-color="#FF7A00"/></linearGradient><linearGradient id="paint2_linear_441_1986" x1="62.002" y1="226.316" x2="200.2" y2="210.601" gradientUnits="userSpaceOnUse"><stop stop-color="#FDB913"/><stop offset="1" stop-color="#FF7A00"/></linearGradient><linearGradient id="paint3_linear_441_1986" x1="62.002" y1="226.316" x2="200.2" y2="210.601" gradientUnits="userSpaceOnUse"><stop stop-color="#FDB913"/><stop offset="1" stop-color="#FF7A00"/></linearGradient><linearGradient id="paint4_linear_441_1986" x1="62.002" y1="226.316" x2="200.2" y2="210.601" gradientUnits="userSpaceOnUse"><stop stop-color="#FDB913"/><stop offset="1" stop-color="#FF7A00"/></linearGradient><linearGradient id="paint5_linear_441_1986" x1="62.002" y1="226.316" x2="200.2" y2="210.601" gradientUnits="userSpaceOnUse"><stop stop-color="#FDB913"/><stop offset="1" stop-color="#FF7A00"/></linearGradient><linearGradient id="paint6_linear_441_1986" x1="62.002" y1="226.316" x2="200.2" y2="210.601" gradientUnits="userSpaceOnUse"><stop stop-color="#FDB913"/><stop offset="1" stop-color="#FF7A00"/></linearGradient><linearGradient id="paint7_linear_441_1986" x1="62.002" y1="226.316" x2="200.2" y2="210.601" gradientUnits="userSpaceOnUse"><stop stop-color="#FDB913"/><stop offset="1" stop-color="#FF7A00"/></linearGradient><linearGradient id="paint8_linear_441_1986" x1="62.002" y1="226.316" x2="200.2" y2="210.601" gradientUnits="userSpaceOnUse"><stop stop-color="#FDB913"/><stop offset="1" stop-color="#FF7A00"/></linearGradient><linearGradient id="paint9_linear_441_1986" x1="62.002" y1="226.316" x2="200.2" y2="210.601" gradientUnits="userSpaceOnUse"><stop stop-color="#FDB913"/><stop offset="1" stop-color="#FF7A00"/></linearGradient><linearGradient id="paint10_linear_441_1986" x1="62.002" y1="226.316" x2="200.2" y2="210.601" gradientUnits="userSpaceOnUse"><stop stop-color="#FDB913"/><stop offset="1" stop-color="#FF7A00"/></linearGradient><linearGradient id="paint11_linear_441_1986" x1="62.002" y1="226.316" x2="200.2" y2="210.601" gradientUnits="userSpaceOnUse"><stop stop-color="#FDB913"/><stop offset="1" stop-color="#FF7A00"/></linearGradient><linearGradient id="paint12_linear_441_1986" x1="62.002" y1="226.316" x2="200.2" y2="210.601" gradientUnits="userSpaceOnUse"><stop stop-color="#FDB913"/><stop offset="1" stop-color="#FF7A00"/></linearGradient></defs></svg>