<svg width="494" height="301" fill="none" xmlns="http://www.w3.org/2000/svg"><path d="M62.846 39.15c-2.629 1.22-6.284 1.892-10.03 1.892-5.347 0-8.44-1.495-8.44-7.304v-13.96H32.473v14.14C32.472 46.93 38.846 50 48.786 50c5.341 0 10.418-.946 14.06-2.337V65.83h11.9V19.78h-11.9v19.37zm40.304-20.597c-14.15 0-22.305 9.172-22.305 23.406 0 16.67 7.686 25.095 23.058 25.095 9.84 0 17.436-5.336 20.244-14.792h-12.558c-.843 3.184-4.314 5.147-8.25 5.147-6 0-9.944-4.494-10.309-11.424h31.776c0-18.25-7.501-27.423-21.656-27.423v-.01zm-9.746 19.764c.474-6.367 4.499-10.114 9.372-10.114 4.783 0 9.282 3.278 9.471 10.114H93.404zM118.9 0h-12.184v11.632H118.9V0zm-18.748 0H87.968v11.632h12.184V0zm55.407 18.543c-5.626 0-9.945 2.153-12.843 6.836l-.095-5.62H130.9v67.906h12v-27.81c3.467 4.867 7.966 7.209 13.686 7.209 11.901 0 18.942-9.83 18.942-23.785-.009-15.544-8.353-24.717-19.974-24.717l.005-.019zm-2.908 38.11c-6.748 0-10.215-4.963-10.215-14.982 0-7.772 4.499-13.203 10.31-13.203 6.094 0 10.418 5.71 10.418 13.95-.019 9.475-3.41 14.234-10.513 14.234zm59.895-19.273h-18.558V19.778h-11.906v46.07h11.906V47.026h18.558v18.822h11.906v-46.07h-11.906V37.38zm39.467-18.818c-14.813 0-20.06 6.647-20.25 16.198H243.1c.568-4.125 2.842-6.836 8.349-6.836 4.778 0 7.781 1.779 7.781 4.778 0 3.183-1.686 4.4-7.781 5.241-12.279 1.68-21.182 3.184-21.182 16.481 0 7.488 4.873 12.64 15.371 12.64 6.185 0 11.058-2.152 13.966-5.336.088 1.398.339 2.78.748 4.12h11.365v-29.12c-.023-11.614-5.081-18.166-19.704-18.166zm7.401 29.774c-.09 5.43-4.778 10.02-11.057 10.02-3.846 0-5.906-1.685-5.906-5.152 0-3.931 2.25-5.9 9.187-7.21 4.499-.842 6.654-1.494 7.871-2.715l-.095 5.057zm35.436-28.558c-10.418 0-16.778 5.43-16.778 15.45 0 7.772 3.841 12.36 10.499 14.14l-11.531 16.48h12.563l10.03-15.544h8.434v15.544h11.906v-46.07H294.85zm13.217 21.538h-12.374c-4.498 0-7.217-2.157-7.217-6.277 0-4.026 2.719-6.178 7.217-6.178h12.374v12.455z" fill="#B41E8E"/><path d="M33.225 287.059h11.929v-36.33h18.558v36.33h11.906v-46.065H33.225v46.065zm48.554-30.615c0 7.772 3.845 12.36 10.498 14.139l-11.526 16.476H93.31l10.03-15.539h8.438v15.539h11.901v-46.065H98.58c-10.427 0-16.801 5.43-16.801 15.45zm29.999-6.368v12.451H99.404c-4.498 0-7.217-2.152-7.217-6.273 0-4.025 2.719-6.178 7.217-6.178h12.374zm17.153.653h15.84v36.33h11.905v-36.33h15.751v-9.735h-43.496v9.735zm79.301 7.867h-18.558v-17.602H177.75v46.065h11.905v-18.818h18.558v18.818h11.906v-46.065h-11.887v17.602zm31.217 12.347v-29.949h-11.976v46.065h11.697l18.653-31.254v31.273h11.905v-46.084h-12.653l-17.626 29.949zm79.96-29.963h-11.905v36.424h-18.469V240.98h-11.9v46.065h40.683V301h8.808v-23.581h-7.217V240.98zm33.083-1.207c-14.813 0-20.06 6.651-20.249 16.202h11.365c.564-4.12 2.813-6.835 8.344-6.835 4.783 0 7.781 1.778 7.781 4.773 0 3.183-1.686 4.404-7.781 5.246-12.279 1.684-21.182 3.184-21.182 16.481 0 7.488 4.873 12.64 15.372 12.64 6.184 0 11.057-2.157 13.965-5.341.088 1.398.339 2.781.748 4.12h11.365v-29.121c-.033-11.594-5.095-18.165-19.728-18.165zm7.406 29.779c-.094 5.43-4.782 10.019-11.062 10.019-3.845 0-5.905-1.684-5.905-5.152 0-3.931 2.249-5.898 9.187-7.209 4.499-.842 6.63-1.499 7.87-2.715l-.09 5.057z" fill="#51B848"/><path fill-rule="evenodd" clip-rule="evenodd" d="M0 228.794h494V81.676H0v147.118zm173.682-13.245H13.26V94.922h99.195v15.374h17.375V94.922h9.358v15.374h17.379V94.922H480.74v120.627H190.791v-36.482c4.949 6.945 11.366 10.284 19.52 10.284 16.977 0 26.993-14.021 26.993-33.917.009-22.148-11.886-35.256-28.466-35.256h-.019c-8.022 0-14.168 3.075-18.312 9.749l-.114-7.994h-16.711v93.616zM62.32 152.227c5.346 0 10.56-.932 14.306-2.668v-27.626h16.977v65.701H76.626V161.73c-5.214 2.001-12.436 3.335-20.055 3.335-14.169 0-23.256-4.404-23.256-22.966v-20.166h16.977v19.887c0 8.273 4.408 10.407 12.028 10.407zm39.954 1.338c0-20.298 11.631-33.387 31.818-33.387h.019c20.183 0 30.881 13.108 30.881 39.13h-45.32c.536 9.882 6.147 16.292 14.704 16.292 5.607 0 10.561-2.805 11.764-7.346h17.909c-4.025 13.486-14.85 21.097-28.887 21.097-21.925 0-32.888-12.015-32.888-35.786zm31.283-19.631c-6.952 0-12.701 5.341-13.368 14.423h26.869c-.27-9.749-6.686-14.423-13.501-14.423zm56.548 19.229c0 14.272 4.948 21.368 14.571 21.368h.019c10.158 0 14.974-6.812 14.955-20.299 0-11.75-6.152-19.896-14.842-19.896-8.287 0-14.703 7.744-14.703 18.827zm73.543-6.159h26.472v-25.071h16.977v65.682H290.12v-26.84h-26.472v26.84h-16.977v-65.682h16.977v25.071zm53.867-3.737c.279-13.643 7.761-23.103 28.887-23.103v.014c20.851 0 28.072 9.347 28.063 25.909v41.514h-16.177a25.679 25.679 0 01-1.07-5.875c-4.144 4.541-11.096 7.611-19.918 7.611-14.974 0-21.921-7.341-21.921-18.028 0-18.959 12.687-21.098 30.208-23.501 8.69-1.201 11.096-2.937 11.096-7.478 0-4.272-4.276-6.812-11.096-6.812-7.884 0-11.095 3.874-11.895 9.749h-16.177zm23.673 33.653c8.955 0 15.642-6.543 15.774-14.291l.133-7.209c-1.757 1.736-4.812 2.668-11.228 3.874-9.893 1.869-13.104 4.674-13.104 10.279 0 4.944 2.941 7.347 8.425 7.347zm42.379-32.953c0-14.286 9.087-22.034 23.928-22.034h35.825v65.687h-16.953v-22.167H414.31l-14.302 22.181h-17.914l16.442-23.501c-9.49-2.54-14.969-9.082-14.969-20.166zm25.131 8.662h17.669V134.88h-17.645c-6.417 0-10.295 3.07-10.295 8.813 0 5.866 3.855 8.936 10.271 8.936z" fill="#FDB813"/></svg>