<svg width="472" height="442" viewBox="0 0 472 442" fill="none" xmlns="http://www.w3.org/2000/svg">
<path fill-rule="evenodd" clip-rule="evenodd" d="M212.469 34.5181C238.81 34.5181 252.777 51.5727 252.777 85.5134L193.509 85.5616C194.305 98.4547 201.638 106.802 212.806 106.802C220.14 106.802 226.604 103.097 228.172 97.1798H251.547C246.312 114.764 232.177 124.674 213.844 124.674C185.235 124.674 170.906 109.015 170.906 78.0325C170.906 51.5727 186.127 34.5181 212.469 34.5181ZM211.769 52.4627C202.675 52.4627 195.173 59.4144 194.305 71.2492H229.378C229.041 58.5484 220.863 52.4627 211.769 52.4627Z" fill="url(#paint0_linear_441_2045)"/>
<path d="M206.945 0V21.649H184.246V0H206.945Z" fill="url(#paint1_linear_441_2045)"/>
<path d="M241.85 0V21.649H219.151V0H241.85Z" fill="url(#paint2_linear_441_2045)"/>
<path d="M143.383 91.4309C142.514 100.668 135.543 105.719 126.642 105.719C117.741 105.719 109.877 96.6507 109.877 78.0326C109.877 59.4144 117.692 53.3527 127.293 53.3527C131.298 53.1688 135.22 54.531 138.243 57.1562C141.267 59.7815 143.159 63.4678 143.527 67.4486H166.371C164.996 47.2429 149.799 34.5422 127.462 34.5422C103.34 34.5422 87.3225 47.9405 87.3225 78.5858C87.3225 109.231 103.364 124.698 126.762 124.698C147.532 124.698 163.766 111.3 166.202 91.4549L143.383 91.4309Z" fill="url(#paint3_linear_441_2045)"/>
<path fill-rule="evenodd" clip-rule="evenodd" d="M48.751 122.413C73.1869 122.413 82.7875 112.334 82.7875 97.8774C82.7875 84.4791 74.586 78.0325 66.1914 76.2284C70.3421 75.2475 74.0151 72.8431 76.5682 69.4354C79.1212 66.0277 80.3919 61.8335 80.1582 57.5862C80.1582 46.2807 72.9215 36.8754 52.5865 36.8754H1.44734V122.509L48.751 122.413ZM23.085 106.417V83.2523H46.8936C55.6259 83.2523 60.3297 87.2694 60.3297 94.7504C60.3297 102.231 55.6259 106.417 45.4945 106.417H23.085ZM23.085 71.4175V52.174H45.4222C53.8167 52.174 57.821 55.6619 57.821 61.916C57.821 68.1702 53.4549 71.5378 45.9529 71.5378L23.085 71.4175Z" fill="url(#paint4_linear_441_2045)"/>
<path d="M78.7591 261.929V176.295H56.5425V212.376C50.6283 214.816 44.2705 216.003 37.8719 215.864C27.9335 215.864 22.1683 213.074 22.1683 202.274V176.295H0V202.49C0 226.689 11.8681 232.414 30.3699 232.414C39.2808 232.507 48.1391 231.041 56.5425 228.084V261.76L78.7591 261.929Z" fill="url(#paint5_linear_441_2045)"/>
<path d="M136.894 194.408V261.929H114.725V194.408H85.2239V176.295H166.202V194.408H136.894Z" fill="url(#paint6_linear_441_2045)"/>
<path fill-rule="evenodd" clip-rule="evenodd" d="M208.271 264.19C234.975 264.19 251.909 246.269 251.909 219.112C251.909 191.954 235.023 174.034 208.271 174.034C181.037 174.034 164.104 191.978 164.104 219.112C164.104 245.788 180.507 264.19 208.271 264.19ZM208.271 245.235C194.474 245.235 187.502 236.527 187.502 219.112C187.502 201.696 194.474 193.181 208.271 193.181C222.069 193.181 229.041 201.72 229.041 219.112C229.041 236.503 222.045 245.235 208.271 245.235Z" fill="url(#paint7_linear_441_2045)"/>
<path d="M23.6157 366.469V401.444H1.44734V315.81H23.6157V348.549H58.1587V315.81H80.327V401.444H58.1587V366.469H23.6157Z" fill="url(#paint8_linear_441_2045)"/>
<path d="M144.565 404.066C144.565 415.372 137.063 422.516 128.861 422.516C116.993 422.516 111.059 416.238 111.059 406.159H89.9277C89.9277 428.265 102.664 442 127.8 442C149.799 442 167.264 427.904 167.264 403.705V315.81H144.565V368.033C144.565 377.246 137.328 384.053 127.1 384.053C117.451 384.053 112.627 378.641 112.627 368.033V315.81H89.9277V371.328C89.9277 390.139 103.364 402.31 121.287 402.31C131.925 402.31 141.356 397.788 144.492 390.139L144.565 404.066Z" fill="url(#paint9_linear_441_2045)"/>
<path d="M222.238 315.81H243.176V348.549L264.283 315.81H290.239L259.169 357.761L291.348 401.444H264.645L243.176 369.428V401.444H222.238V369.428L200.769 401.444H174.066L206.342 357.761L175.272 315.81H201.107L222.238 348.549V315.81Z" fill="url(#paint10_linear_441_2045)"/>
<path d="M319.789 401.444V366.469H354.356V401.444H376.524V315.81H354.356V348.549H319.789V315.81H297.62V401.444H319.789Z" fill="url(#paint11_linear_441_2045)"/>
<path fill-rule="evenodd" clip-rule="evenodd" d="M472 358.627C472 385.785 455.066 403.705 428.363 403.705C400.598 403.705 384.195 385.304 384.195 358.627C384.195 331.494 401.611 313.549 428.363 313.549C455.114 313.549 472 331.47 472 358.627ZM407.594 358.627C407.594 376.043 414.565 384.75 428.363 384.75C442.137 384.75 449.132 376.019 449.132 358.627C449.132 341.236 442.161 332.697 428.363 332.697C414.565 332.697 407.594 341.212 407.594 358.627Z" fill="url(#paint12_linear_441_2045)"/>
<defs>
<linearGradient id="paint0_linear_441_2045" x1="113.187" y1="416.798" x2="368.401" y2="387.695" gradientUnits="userSpaceOnUse">
<stop stop-color="#FDB913"/>
<stop offset="1" stop-color="#FF7A00"/>
</linearGradient>
<linearGradient id="paint1_linear_441_2045" x1="113.187" y1="416.798" x2="368.401" y2="387.695" gradientUnits="userSpaceOnUse">
<stop stop-color="#FDB913"/>
<stop offset="1" stop-color="#FF7A00"/>
</linearGradient>
<linearGradient id="paint2_linear_441_2045" x1="113.187" y1="416.798" x2="368.401" y2="387.695" gradientUnits="userSpaceOnUse">
<stop stop-color="#FDB913"/>
<stop offset="1" stop-color="#FF7A00"/>
</linearGradient>
<linearGradient id="paint3_linear_441_2045" x1="113.187" y1="416.798" x2="368.401" y2="387.695" gradientUnits="userSpaceOnUse">
<stop stop-color="#FDB913"/>
<stop offset="1" stop-color="#FF7A00"/>
</linearGradient>
<linearGradient id="paint4_linear_441_2045" x1="113.187" y1="416.798" x2="368.401" y2="387.695" gradientUnits="userSpaceOnUse">
<stop stop-color="#FDB913"/>
<stop offset="1" stop-color="#FF7A00"/>
</linearGradient>
<linearGradient id="paint5_linear_441_2045" x1="113.187" y1="416.798" x2="368.401" y2="387.695" gradientUnits="userSpaceOnUse">
<stop stop-color="#FDB913"/>
<stop offset="1" stop-color="#FF7A00"/>
</linearGradient>
<linearGradient id="paint6_linear_441_2045" x1="113.187" y1="416.798" x2="368.401" y2="387.695" gradientUnits="userSpaceOnUse">
<stop stop-color="#FDB913"/>
<stop offset="1" stop-color="#FF7A00"/>
</linearGradient>
<linearGradient id="paint7_linear_441_2045" x1="113.187" y1="416.798" x2="368.401" y2="387.695" gradientUnits="userSpaceOnUse">
<stop stop-color="#FDB913"/>
<stop offset="1" stop-color="#FF7A00"/>
</linearGradient>
<linearGradient id="paint8_linear_441_2045" x1="113.187" y1="416.798" x2="368.401" y2="387.695" gradientUnits="userSpaceOnUse">
<stop stop-color="#FDB913"/>
<stop offset="1" stop-color="#FF7A00"/>
</linearGradient>
<linearGradient id="paint9_linear_441_2045" x1="113.187" y1="416.798" x2="368.401" y2="387.695" gradientUnits="userSpaceOnUse">
<stop stop-color="#FDB913"/>
<stop offset="1" stop-color="#FF7A00"/>
</linearGradient>
<linearGradient id="paint10_linear_441_2045" x1="113.187" y1="416.798" x2="368.401" y2="387.695" gradientUnits="userSpaceOnUse">
<stop stop-color="#FDB913"/>
<stop offset="1" stop-color="#FF7A00"/>
</linearGradient>
<linearGradient id="paint11_linear_441_2045" x1="113.187" y1="416.798" x2="368.401" y2="387.695" gradientUnits="userSpaceOnUse">
<stop stop-color="#FDB913"/>
<stop offset="1" stop-color="#FF7A00"/>
</linearGradient>
<linearGradient id="paint12_linear_441_2045" x1="113.187" y1="416.798" x2="368.401" y2="387.695" gradientUnits="userSpaceOnUse">
<stop stop-color="#FDB913"/>
<stop offset="1" stop-color="#FF7A00"/>
</linearGradient>
</defs>
</svg>
