<svg width="257" height="240" viewBox="0 0 257 240" fill="none" xmlns="http://www.w3.org/2000/svg">
<path fill-rule="evenodd" clip-rule="evenodd" d="M115.759 18.7428C130.022 18.7428 137.584 28.0032 137.584 46.4326L105.493 46.4588C105.924 53.4596 109.894 57.9918 115.942 57.9918C119.912 57.9918 123.413 55.9804 124.262 52.7673H136.918C134.084 62.3151 126.43 67.6963 116.503 67.6963C101.013 67.6963 93.2542 59.1934 93.2542 42.3706C93.2542 28.0032 101.496 18.7428 115.759 18.7428ZM115.38 28.4865C110.456 28.4865 106.394 32.2612 105.924 38.6873H124.915C124.732 31.791 120.304 28.4865 115.38 28.4865Z" fill="url(#paint0_linear_441_1986)"/>
<path d="M112.768 0V11.7551H100.477V0H112.768Z" fill="url(#paint1_linear_441_1986)"/>
<path d="M131.667 0V11.7551H119.377V0H131.667Z" fill="url(#paint2_linear_441_1986)"/>
<path d="M78.3514 49.6457C77.8812 54.6612 74.1065 57.4041 69.2869 57.4041C64.4673 57.4041 60.2094 52.48 60.2094 42.3706C60.2094 32.2612 64.4412 28.9698 69.6396 28.9698C71.808 28.8699 73.9315 29.6096 75.5686 31.0351C77.2057 32.4605 78.2304 34.4621 78.4298 36.6237H90.7987C90.0543 25.6523 81.8257 18.7559 69.731 18.7559C56.6698 18.7559 47.9971 26.031 47.9971 42.671C47.9971 59.311 56.6828 67.7094 69.3522 67.7094C80.5979 67.7094 89.3881 60.4343 90.7073 49.6588L78.3514 49.6457Z" fill="url(#paint3_linear_441_1986)"/>
<path fill-rule="evenodd" clip-rule="evenodd" d="M27.1122 66.4686C40.3432 66.4686 45.5416 60.9959 45.5416 53.1461C45.5416 45.871 41.1008 42.3706 36.5555 41.391C38.8029 40.8584 40.7917 39.5528 42.1741 37.7025C43.5564 35.8521 44.2445 33.5748 44.1179 31.2685C44.1179 25.1298 40.1995 20.0228 29.1889 20.0228H1.49913V66.5208L27.1122 66.4686ZM13.215 57.7828V45.2049H26.1065C30.8346 45.2049 33.3816 47.3861 33.3816 51.4482C33.3816 55.5102 30.8346 57.7828 25.3489 57.7828H13.215ZM13.215 38.7787V28.3298H25.3097C29.855 28.3298 32.0232 30.2236 32.0232 33.6196C32.0232 37.0155 29.6591 38.8441 25.5971 38.8441L13.215 38.7787Z" fill="url(#paint4_linear_441_1986)"/>
<path d="M43.3604 142.224V95.7257H31.331V115.318C28.1286 116.642 24.6862 117.287 21.2216 117.211C15.8403 117.211 12.7187 115.696 12.7187 109.832V95.7257H0.715454V109.949C0.715454 123.089 7.14157 126.198 17.1595 126.198C21.9844 126.248 26.7808 125.452 31.331 123.847V142.132L43.3604 142.224Z" fill="url(#paint5_linear_441_1986)"/>
<path d="M74.8379 105.561V142.224H62.8346V105.561H46.8608V95.7257H90.7073V105.561H74.8379Z" fill="url(#paint6_linear_441_1986)"/>
<path fill-rule="evenodd" clip-rule="evenodd" d="M113.486 143.451C127.945 143.451 137.114 133.721 137.114 118.975C137.114 104.229 127.971 94.4979 113.486 94.4979C98.74 94.4979 89.571 104.242 89.571 118.975C89.571 133.46 98.4526 143.451 113.486 143.451ZM113.486 133.159C106.015 133.159 102.24 128.431 102.24 118.975C102.24 109.518 106.015 104.895 113.486 104.895C120.957 104.895 124.732 109.531 124.732 118.975C124.732 128.418 120.944 133.159 113.486 133.159Z" fill="url(#paint7_linear_441_1986)"/>
<path d="M13.5024 198.988V217.979H1.49913V171.481H13.5024V189.257H32.2061V171.481H44.2093V217.979H32.2061V198.988H13.5024Z" fill="url(#paint8_linear_441_1986)"/>
<path d="M78.9914 219.402C78.9914 225.541 74.9293 229.42 70.4885 229.42C64.0624 229.42 60.8493 226.011 60.8493 220.539H49.4077C49.4077 232.542 56.304 240 69.9138 240C81.8257 240 91.282 232.346 91.282 219.206V171.481H78.9914V199.837C78.9914 204.839 75.073 208.536 69.535 208.536C64.3106 208.536 61.6983 205.597 61.6983 199.837V171.481H49.4077V201.626C49.4077 211.84 56.6828 218.449 66.3873 218.449C72.1473 218.449 77.2542 215.993 78.9522 211.84L78.9914 219.402Z" fill="url(#paint9_linear_441_1986)"/>
<path d="M121.049 171.481H132.386V189.257L143.814 171.481H157.868L141.045 194.26L158.469 217.979H144.01L132.386 200.594V217.979H121.049V200.594L109.424 217.979H94.9653L112.441 194.26L95.6183 171.481H109.607L121.049 189.257V171.481Z" fill="url(#paint10_linear_441_1986)"/>
<path d="M173.868 217.979V198.988H192.585V217.979H204.588V171.481H192.585V189.257H173.868V171.481H161.865V217.979H173.868Z" fill="url(#paint11_linear_441_1986)"/>
<path fill-rule="evenodd" clip-rule="evenodd" d="M256.285 194.73C256.285 209.476 247.116 219.206 232.657 219.206C217.623 219.206 208.742 209.215 208.742 194.73C208.742 179.997 218.172 170.253 232.657 170.253C247.142 170.253 256.285 179.984 256.285 194.73ZM221.411 194.73C221.411 204.186 225.186 208.914 232.657 208.914C240.115 208.914 243.902 204.173 243.902 194.73C243.902 185.287 240.128 180.65 232.657 180.65C225.186 180.65 221.411 185.273 221.411 194.73Z" fill="url(#paint12_linear_441_1986)"/>
<defs>
<linearGradient id="paint0_linear_441_1986" x1="62.0016" y1="226.316" x2="200.2" y2="210.601" gradientUnits="userSpaceOnUse">
<stop stop-color="#FDB913"/>
<stop offset="1" stop-color="#FF7A00"/>
</linearGradient>
<linearGradient id="paint1_linear_441_1986" x1="62.0016" y1="226.316" x2="200.2" y2="210.601" gradientUnits="userSpaceOnUse">
<stop stop-color="#FDB913"/>
<stop offset="1" stop-color="#FF7A00"/>
</linearGradient>
<linearGradient id="paint2_linear_441_1986" x1="62.0016" y1="226.316" x2="200.2" y2="210.601" gradientUnits="userSpaceOnUse">
<stop stop-color="#FDB913"/>
<stop offset="1" stop-color="#FF7A00"/>
</linearGradient>
<linearGradient id="paint3_linear_441_1986" x1="62.0016" y1="226.316" x2="200.2" y2="210.601" gradientUnits="userSpaceOnUse">
<stop stop-color="#FDB913"/>
<stop offset="1" stop-color="#FF7A00"/>
</linearGradient>
<linearGradient id="paint4_linear_441_1986" x1="62.0016" y1="226.316" x2="200.2" y2="210.601" gradientUnits="userSpaceOnUse">
<stop stop-color="#FDB913"/>
<stop offset="1" stop-color="#FF7A00"/>
</linearGradient>
<linearGradient id="paint5_linear_441_1986" x1="62.0016" y1="226.316" x2="200.2" y2="210.601" gradientUnits="userSpaceOnUse">
<stop stop-color="#FDB913"/>
<stop offset="1" stop-color="#FF7A00"/>
</linearGradient>
<linearGradient id="paint6_linear_441_1986" x1="62.0016" y1="226.316" x2="200.2" y2="210.601" gradientUnits="userSpaceOnUse">
<stop stop-color="#FDB913"/>
<stop offset="1" stop-color="#FF7A00"/>
</linearGradient>
<linearGradient id="paint7_linear_441_1986" x1="62.0016" y1="226.316" x2="200.2" y2="210.601" gradientUnits="userSpaceOnUse">
<stop stop-color="#FDB913"/>
<stop offset="1" stop-color="#FF7A00"/>
</linearGradient>
<linearGradient id="paint8_linear_441_1986" x1="62.0016" y1="226.316" x2="200.2" y2="210.601" gradientUnits="userSpaceOnUse">
<stop stop-color="#FDB913"/>
<stop offset="1" stop-color="#FF7A00"/>
</linearGradient>
<linearGradient id="paint9_linear_441_1986" x1="62.0016" y1="226.316" x2="200.2" y2="210.601" gradientUnits="userSpaceOnUse">
<stop stop-color="#FDB913"/>
<stop offset="1" stop-color="#FF7A00"/>
</linearGradient>
<linearGradient id="paint10_linear_441_1986" x1="62.0016" y1="226.316" x2="200.2" y2="210.601" gradientUnits="userSpaceOnUse">
<stop stop-color="#FDB913"/>
<stop offset="1" stop-color="#FF7A00"/>
</linearGradient>
<linearGradient id="paint11_linear_441_1986" x1="62.0016" y1="226.316" x2="200.2" y2="210.601" gradientUnits="userSpaceOnUse">
<stop stop-color="#FDB913"/>
<stop offset="1" stop-color="#FF7A00"/>
</linearGradient>
<linearGradient id="paint12_linear_441_1986" x1="62.0016" y1="226.316" x2="200.2" y2="210.601" gradientUnits="userSpaceOnUse">
<stop stop-color="#FDB913"/>
<stop offset="1" stop-color="#FF7A00"/>
</linearGradient>
</defs>
</svg>
