<svg width="494" height="301" viewBox="0 0 494 301" fill="none" xmlns="http://www.w3.org/2000/svg">
<path d="M62.8456 39.1494C60.2174 40.3699 56.5615 41.0416 52.8157 41.0416C47.4692 41.0416 44.3769 39.5467 44.3769 33.7377V19.7781H32.4717V33.9175C32.4717 46.931 38.8458 50.0011 48.7857 50.0011C54.1274 50.0011 59.2039 49.055 62.8456 47.6642V65.8292H74.7461V19.7781H62.8456V39.1494ZM103.15 18.5529C89.0001 18.5529 80.8455 27.7253 80.8455 41.9593C80.8455 58.6295 88.5313 67.0544 103.903 67.0544C113.743 67.0544 121.339 61.7185 124.147 52.2623H111.589C110.746 55.4459 107.275 57.409 103.339 57.409C97.3395 57.409 93.3947 52.9151 93.0301 45.9849H124.806C124.806 27.7348 117.305 18.5624 103.15 18.5624V18.5529ZM93.4042 38.3168C93.8778 31.9496 97.903 28.2031 102.776 28.2031C107.559 28.2031 112.058 31.4813 112.247 38.3168H93.4042ZM118.9 0H106.716V11.6322H118.9V0ZM100.152 0H87.9678V11.6322H100.152V0ZM155.559 18.5434C149.933 18.5434 145.614 20.6958 142.716 25.379L142.621 19.7592H130.9V87.6651H142.9V59.8547C146.367 64.7223 150.866 67.0639 156.586 67.0639C168.487 67.0639 175.528 57.234 175.528 43.2791C175.519 27.7348 167.175 18.5624 155.554 18.5624L155.559 18.5434ZM152.651 56.6521C145.903 56.6521 142.436 51.6899 142.436 41.6707C142.436 33.8986 146.935 28.468 152.746 28.468C158.84 28.468 163.164 34.1777 163.164 42.4181C163.145 51.8933 159.754 56.6521 152.651 56.6521ZM212.546 37.3802H193.988V19.7781H182.082V65.8482H193.988V47.0256H212.546V65.8482H224.452V19.7781H212.546V37.3802ZM252.013 18.5624C237.2 18.5624 231.953 25.2087 231.763 34.7595H243.1C243.668 30.6345 245.942 27.924 251.449 27.924C256.227 27.924 259.23 29.7026 259.23 32.7018C259.23 35.8854 257.544 37.1011 251.449 37.9431C239.17 39.6224 230.267 41.1267 230.267 54.4241C230.267 61.9124 235.14 67.0639 245.638 67.0639C251.823 67.0639 256.696 64.9115 259.604 61.7279C259.692 63.1257 259.943 64.5084 260.352 65.8482H271.717V36.7274C271.694 25.1141 266.636 18.5624 252.013 18.5624ZM259.414 48.336C259.324 53.7665 254.636 58.3551 248.357 58.3551C244.511 58.3551 242.451 56.6711 242.451 53.2036C242.451 49.2726 244.701 47.3047 251.638 45.9944C256.137 45.1524 258.292 44.4996 259.509 43.2791L259.414 48.336ZM294.85 19.7781C284.432 19.7781 278.072 25.2087 278.072 35.2278C278.072 43 281.913 47.5885 288.571 49.3672L277.04 65.8482H289.603L299.633 50.3038H308.067V65.8482H319.973V19.7781H294.85ZM308.067 41.3159H295.693C291.195 41.3159 288.476 39.1588 288.476 35.0386C288.476 31.013 291.195 28.8606 295.693 28.8606H308.067V41.3159Z" fill="#B41E8E"/>
<path d="M33.2249 287.059H45.1537V250.729H63.7124V287.059H75.6176V240.994H33.2249V287.059ZM81.7786 256.444C81.7786 264.216 85.6239 268.804 92.2774 270.583L80.751 287.059H93.3097L103.34 271.52H111.778V287.059H123.679V240.994H98.5804C88.1527 240.994 81.7786 246.424 81.7786 256.444ZM111.778 250.076V262.527H99.4044C94.9056 262.527 92.1874 260.375 92.1874 256.254C92.1874 252.229 94.9056 250.076 99.4044 250.076H111.778ZM128.931 250.729H144.771V287.059H156.676V250.729H172.427V240.994H128.931V250.729ZM208.232 258.596H189.674V240.994H177.75V287.059H189.655V268.241H208.213V287.059H220.119V240.994H208.232V258.596ZM239.449 270.943V240.994H227.473V287.059H239.17L257.823 255.805V287.078H269.728V240.994H257.075L239.449 270.943ZM319.409 240.98H307.504V277.404H289.035V240.98H277.135V287.045H317.818V301H326.626V277.419H319.409V240.98ZM352.492 239.773C337.679 239.773 332.432 246.424 332.243 255.975H343.608C344.172 251.855 346.421 249.14 351.952 249.14C356.735 249.14 359.733 250.918 359.733 253.913C359.733 257.096 358.047 258.317 351.952 259.159C339.673 260.843 330.77 262.343 330.77 275.64C330.77 283.128 335.643 288.28 346.142 288.28C352.326 288.28 357.199 286.123 360.107 282.939C360.195 284.337 360.446 285.72 360.855 287.059H372.22V257.938C372.187 246.344 367.125 239.773 352.492 239.773ZM359.898 269.552C359.804 274.982 355.116 279.571 348.836 279.571C344.991 279.571 342.931 277.887 342.931 274.419C342.931 270.488 345.18 268.521 352.118 267.21C356.617 266.368 358.748 265.711 359.988 264.495L359.898 269.552Z" fill="#51B848"/>
<path fill-rule="evenodd" clip-rule="evenodd" d="M0 228.794H494V81.6763H0V228.794ZM173.682 215.549H13.2596V94.9216H112.455V110.296H129.83V94.9216H139.188V110.296H156.567V94.9216H480.74V215.549H190.791V179.067C195.74 186.012 202.157 189.351 210.311 189.351C227.288 189.351 237.304 175.33 237.304 155.434C237.313 133.286 225.418 120.178 208.838 120.178H208.819C200.797 120.178 194.651 123.253 190.507 129.927L190.393 121.933H173.682V215.549ZM62.32 152.227C67.6665 152.227 72.8803 151.295 76.6261 149.559V121.933H93.6031V187.634H76.6261V161.73C71.4123 163.731 64.1905 165.065 56.571 165.065C42.4022 165.065 33.3147 160.661 33.3147 142.099V121.933H50.2917V141.82C50.2917 150.093 54.7005 152.227 62.32 152.227ZM102.274 153.565C102.274 133.267 113.905 120.178 134.092 120.178H134.111C154.294 120.178 164.992 133.286 164.992 159.308H119.672C120.208 169.19 125.819 175.6 134.376 175.6C139.983 175.6 144.937 172.795 146.14 168.254H164.049C160.024 181.74 149.199 189.351 135.162 189.351C113.237 189.351 102.274 177.336 102.274 153.565ZM133.557 133.934C126.605 133.934 120.856 139.275 120.189 148.357H147.058C146.788 138.608 140.372 133.934 133.557 133.934ZM190.105 153.163C190.105 167.435 195.053 174.531 204.676 174.531H204.695C214.853 174.531 219.669 167.719 219.65 154.232C219.65 142.482 213.498 134.336 204.808 134.336C196.521 134.336 190.105 142.08 190.105 153.163ZM263.648 147.004H290.12V121.933H307.097V187.615H290.12V160.775H263.648V187.615H246.671V121.933H263.648V147.004ZM317.515 143.267C317.794 129.624 325.276 120.164 346.402 120.164V120.178C367.253 120.178 374.474 129.525 374.465 146.087V187.601H358.288C357.704 185.691 357.345 183.719 357.218 181.726C353.074 186.267 346.122 189.337 337.3 189.337C322.326 189.337 315.379 181.996 315.379 171.309C315.379 152.35 328.066 150.211 345.587 147.808C354.277 146.607 356.683 144.871 356.683 140.33C356.683 136.058 352.407 133.518 345.587 133.518C337.703 133.518 334.492 137.392 333.692 143.267H317.515ZM341.188 176.92C350.143 176.92 356.83 170.377 356.962 162.629L357.095 155.42C355.338 157.156 352.283 158.088 345.867 159.294C335.974 161.163 332.763 163.968 332.763 169.573C332.763 174.517 335.704 176.92 341.188 176.92ZM383.567 143.967C383.567 129.681 392.654 121.933 407.495 121.933H443.32V187.62H426.367V165.453H414.31L400.008 187.634H382.094L398.536 164.133C389.046 161.593 383.567 155.051 383.567 143.967ZM408.698 152.629H426.367V134.88H408.722C402.305 134.88 398.427 137.95 398.427 143.693C398.427 149.559 402.282 152.629 408.698 152.629Z" fill="#FDB813"/>
</svg>
